{
  "accessors": [
    {
      "bufferView": 2,
      "componentType": 5126,
      "count": 884,
      "max": [
        1.6382180452346802,
        0.36370399594306946,
        0.10127700120210648
      ],
      "min": [
        0.3977830111980438,
        -0.5229020118713379,
        -0.049890998750925064
      ],
      "type": "VEC3"
    },
    {
      "bufferView": 2,
      "byteOffset": 10608,
      "componentType": 5126,
      "count": 884,
      "max": [
        0.9999817609786987,
        0.9999863505363464,
        0.9998701810836792
      ],
      "min": [
        -0.8256618976593018,
        -0.9997482299804688,
        -0.9999520182609558
      ],
      "type": "VEC3"
    },
    {
      "bufferView": 1,
      "componentType": 5126,
      "count": 884,
      "max": [
        0.9495106339454651,
        1.0
      ],
      "min": [
        0.0,
        0.0
      ],
      "type": "VEC2"
    },
    {
      "bufferView": 0,
      "componentType": 5125,
      "count": 4008,
      "type": "SCALAR"
    },
    {
      "bufferView": 2,
      "byteOffset": 21216,
      "componentType": 5126,
      "count": 1905,
      "max": [
        -0.5760409832000732,
        -0.20227700471878052,
        0.07254000008106232
      ],
      "min": [
        -1.1467549800872803,
        -0.6637089848518372,
        -0.027300000190734863
      ],
      "type": "VEC3"
    },
    {
      "bufferView": 2,
      "byteOffset": 44076,
      "componentType": 5126,
      "count": 1905,
      "max": [
        0.9998888969421387,
        0.9998977184295654,
        0.9999972581863403
      ],
      "min": [
        -0.9998859167098999,
        -0.999900221824646,
        -0.999984860420227
      ],
      "type": "VEC3"
    },
    {
      "bufferView": 1,
      "byteOffset": 7072,
      "componentType": 5126,
      "count": 1905,
      "max": [
        0.9321974515914917,
        1.0
      ],
      "min": [
        0.0,
        0.0
      ],
      "type": "VEC2"
    },
    {
      "bufferView": 0,
      "byteOffset": 16032,
      "componentType": 5125,
      "count": 3990,
      "type": "SCALAR"
    },
    {
      "bufferView": 2,
      "byteOffset": 66936,
      "componentType": 5126,
      "count": 6162,
      "max": [
        0.6199129819869995,
        0.36370399594306946,
        0.10285399854183197
      ],
      "min": [
        -1.0230790376663208,
        -0.4112739861011505,
        -0.06540799885988235
      ],
      "type": "VEC3"
    },
    {
      "bufferView": 2,
      "byteOffset": 140880,
      "componentType": 5126,
      "count": 6162,
      "max": [
        0.9983299374580383,
        0.9998756647109985,
        0.9999911785125732
      ],
      "min": [
        -0.9998084306716919,
        -0.9998977184295654,
        -0.9999945163726807
      ],
      "type": "VEC3"
    },
    {
      "bufferView": 1,
      "byteOffset": 22312,
      "componentType": 5126,
      "count": 6162,
      "max": [
        0.9990241527557373,
        0.9999999403953552
      ],
      "min": [
        0.0,
        0.0
      ],
      "type": "VEC2"
    },
    {
      "bufferView": 0,
      "byteOffset": 31992,
      "componentType": 5125,
      "count": 23496,
      "type": "SCALAR"
    },
    {
      "bufferView": 2,
      "byteOffset": 214824,
      "componentType": 5126,
      "count": 1666,
      "max": [
        0.3334130048751831,
        0.12116800248622894,
        0.09800200164318085
      ],
      "min": [
        -0.6610990166664124,
        -0.3640980124473572,
        -0.05352000147104263
      ],
      "type": "VEC3"
    },
    {
      "bufferView": 2,
      "byteOffset": 234816,
      "componentType": 5126,
      "count": 1666,
      "max": [
        0.9869530200958252,
        0.7818433046340942,
        0.9999243021011353
      ],
      "min": [
        -0.9656528234481812,
        -0.9998636245727539,
        -0.9999639987945557
      ],
      "type": "VEC3"
    },
    {
      "bufferView": 1,
      "byteOffset": 71608,
      "componentType": 5126,
      "count": 1666,
      "max": [
        1.0,
        0.9891394972801208
      ],
      "min": [
        0.0,
        0.0
      ],
      "type": "VEC2"
    },
    {
      "bufferView": 0,
      "byteOffset": 125976,
      "componentType": 5125,
      "count": 7380,
      "type": "SCALAR"
    }
  ],
  "asset": {
    "extras": {
      "author": "Niilo Poutanen (https://sketchfab.com/niilo.poutanen)",
      "license": "CC-BY-ND-4.0 (http://creativecommons.org/licenses/by-nd/4.0/)",
      "source": "https://sketchfab.com/3d-models/karambit-fade-b4ead4fae7e940489f62db71aac62c9e",
      "title": "Karambit fade"
    },
    "generator": "Sketchfab-12.65.0",
    "version": "2.0"
  },
  "bufferViews": [
    {
      "buffer": 0,
      "byteLength": 155496,
      "name": "floatBufferViews",
      "target": 34963
    },
    {
      "buffer": 0,
      "byteLength": 84936,
      "byteOffset": 155496,
      "byteStride": 8,
      "name": "floatBufferViews",
      "target": 34962
    },
    {
      "buffer": 0,
      "byteLength": 254808,
      "byteOffset": 240432,
      "byteStride": 12,
      "name": "floatBufferViews",
      "target": 34962
    }
  ],
  "buffers": [
    {
      "byteLength": 495240,
      "uri": "scene.bin"
    }
  ],
  "images": [
    {
      "uri": "textures/Fade_baseColor.png"
    },
    {
      "uri": "textures/Fade_back_baseColor.png"
    },
    {
      "uri": "textures/blinn1SG_baseColor.png"
    }
  ],
  "materials": [
    {
      "doubleSided": true,
      "name": "Fade",
      "pbrMetallicRoughness": {
        "baseColorTexture": {
          "index": 0
        },
        "metallicFactor": 0.7,
        "roughnessFactor": 0.0
      }
    },
    {
      "doubleSided": true,
      "name": "Fade_back",
      "pbrMetallicRoughness": {
        "baseColorTexture": {
          "index": 1
        },
        "metallicFactor": 0.7,
        "roughnessFactor": 0.0
      }
    },
    {
      "doubleSided": true,
      "name": "blinn1SG",
      "pbrMetallicRoughness": {
        "baseColorTexture": {
          "index": 2
        },
        "metallicFactor": 0.1841152436,
        "roughnessFactor": 0.6279678845
      }
    },
    {
      "doubleSided": true,
      "name": "Fing",
      "pbrMetallicRoughness": {
        "baseColorFactor": [
          0.006399,
          0.006399,
          0.006399,
          1.0
        ],
        "metallicFactor": 0.0,
        "roughnessFactor": 0.4090816506
      }
    }
  ],
  "meshes": [
    {
      "name": "Blade_Fade_0",
      "primitives": [
        {
          "attributes": {
            "NORMAL": 1,
            "POSITION": 0,
            "TEXCOORD_0": 2
          },
          "indices": 3,
          "material": 0,
          "mode": 4
        }
      ]
    },
    {
      "name": "Kahva_Fade_back_0",
      "primitives": [
        {
          "attributes": {
            "NORMAL": 5,
            "POSITION": 4,
            "TEXCOORD_0": 6
          },
          "indices": 7,
          "material": 1,
          "mode": 4
        }
      ]
    },
    {
      "name": "Fingerhandle.001_blinn1SG_0",
      "primitives": [
        {
          "attributes": {
            "NORMAL": 9,
            "POSITION": 8,
            "TEXCOORD_0": 10
          },
          "indices": 11,
          "material": 2,
          "mode": 4
        }
      ]
    },
    {
      "name": "Fingerhandle.002_Fing_0",
      "primitives": [
        {
          "attributes": {
            "NORMAL": 13,
            "POSITION": 12,
            "TEXCOORD_0": 14
          },
          "indices": 15,
          "material": 3,
          "mode": 4
        }
      ]
    }
  ],
  "nodes": [
    {
      "children": [
        1
      ],
      "matrix": [
        0.00955617893487215,
        0.0,
        0.0,
        0.0,
        0.0,
        2.121897976186593e-18,
        -0.00955617893487215,
        0.0,
        0.0,
        0.00955617893487215,
        2.121897976186593e-18,
        0.0,
        0.0,
        -3.3747869565559107e-07,
        8.939404665397887e-07,
        1.0
      ],
      "name": "Sketchfab_model"
    },
    {
      "children": [
        2
      ],
      "matrix": [
        1.0,
        0.0,
        0.0,
        0.0,
        0.0,
        0.0,
        1.0,
        0.0,
        0.0,
        -1.0,
        0.0,
        0.0,
        0.0,
        0.0,
        0.0,
        1.0
      ],
      "name": "767b187f87834e8a9e02c4d3c86b0015.fbx"
    },
    {
      "children": [
        3,
        5,
        7,
        9,
        11
      ],
      "name": "RootNode"
    },
    {
      "children": [
        4
      ],
      "matrix": [
        1.9470721841536002e-05,
        -1.5777220511832667e-28,
        100.00001525878717,
        0.0,
        -1.5072890915892173e-12,
        100.00001525878906,
        2.934800217822661e-19,
        0.0,
        -100.0000228881817,
        -1.5072892065862603e-12,
        1.9470723327033965e-05,
        0.0,
        5.486917495727539,
        -3.3221495151519775,
        -536.5208740234375,
        1.0
      ],
      "name": "Camera"
    },
    {
      "name": "Object_4"
    },
    {
      "children": [
        6
      ],
      "matrix": [
        100.0,
        0.0,
        0.0,
        0.0,
        0.0,
        99.99999999999866,
        1.6292067073209114e-05,
        0.0,
        0.0,
        -1.6292067073209114e-05,
        99.99999999999866,
        0.0,
        0.0,
        0.0,
        0.0,
        1.0
      ],
      "name": "Blade"
    },
    {
      "mesh": 0,
      "name": "Blade_Fade_0"
    },
    {
      "children": [
        8
      ],
      "matrix": [
        100.0,
        0.0,
        0.0,
        0.0,
        0.0,
        99.99999999999866,
        1.6292067073209114e-05,
        0.0,
        0.0,
        -1.6292067073209114e-05,
        99.99999999999866,
        0.0,
        0.0,
        0.0,
        0.0,
        1.0
      ],
      "name": "Kahva"
    },
    {
      "mesh": 1,
      "name": "Kahva_Fade_back_0"
    },
    {
      "children": [
        10
      ],
      "matrix": [
        100.0,
        0.0,
        0.0,
        0.0,
        0.0,
        99.99999999999866,
        1.6292067073209114e-05,
        0.0,
        0.0,
        -1.6292067073209114e-05,
        99.99999999999866,
        0.0,
        0.0,
        0.0,
        0.0,
        1.0
      ],
      "name": "Fingerhandle.001"
    },
    {
      "mesh": 2,
      "name": "Fingerhandle.001_blinn1SG_0"
    },
    {
      "children": [
        12
      ],
      "matrix": [
        100.0,
        0.0,
        0.0,
        0.0,
        0.0,
        99.99999999999866,
        1.6292067073209114e-05,
        0.0,
        0.0,
        -1.6292067073209114e-05,
        99.99999999999866,
        0.0,
        0.0,
        0.0,
        0.0,
        1.0
      ],
      "name": "Fingerhandle.002"
    },
    {
      "mesh": 3,
      "name": "Fingerhandle.002_Fing_0"
    }
  ],
  "samplers": [
    {
      "magFilter": 9729,
      "minFilter": 9987,
      "wrapS": 10497,
      "wrapT": 10497
    }
  ],
  "scene": 0,
  "scenes": [
    {
      "name": "Sketchfab_Scene",
      "nodes": [
        0
      ]
    }
  ],
  "textures": [
    {
      "sampler": 0,
      "source": 0
    },
    {
      "sampler": 0,
      "source": 1
    },
    {
      "sampler": 0,
      "source": 2
    }
  ]
}
