{
  "accessors": [
    {
      "bufferView": 2,
      "componentType": 5126,
      "count": 32,
      "max": [
        0.8925999999046326,
        20.860197067260742,
        10.224898338317871
      ],
      "min": [
        -0.8925999999046326,
        -0.8536999225616455,
        9.751298904418945
      ],
      "type": "VEC3"
    },
    {
      "bufferView": 2,
      "byteOffset": 384,
      "componentType": 5126,
      "count": 32,
      "max": [
        0.0,
        -0.0,
        1.0
      ],
      "min": [
        0.0,
        -1.0,
        0.0
      ],
      "type": "VEC3"
    },
    {
      "bufferView": 1,
      "componentType": 5126,
      "count": 32,
      "max": [
        0.94189453125,
        0.816650390625
      ],
      "min": [
        0.58349609375,
        0.578857421875
      ],
      "type": "VEC2"
    },
    {
      "bufferView": 1,
      "byteOffset": 256,
      "componentType": 5126,
      "count": 32,
      "max": [
        2.248046875,
        0.0
      ],
      "min": [
        -0.892578125,
        -3.13671875
      ],
      "type": "VEC2"
    },
    {
      "bufferView": 1,
      "byteOffset": 512,
      "componentType": 5126,
      "count": 32,
      "max": [
        0.97705078125,
        0.2177734375
      ],
      "min": [
        0.1370849609375,
        0.01904296875
      ],
      "type": "VEC2"
    },
    {
      "bufferView": 0,
      "componentType": 5125,
      "count": 78,
      "type": "SCALAR"
    },
    {
      "bufferView": 2,
      "byteOffset": 768,
      "componentType": 5126,
      "count": 8520,
      "max": [
        2.2330996990203857,
        21.58479881286621,
        10.226899147033691
      ],
      "min": [
        -2.2139997482299805,
        -5.203399658203125,
        -4.918099403381348
      ],
      "type": "VEC3"
    },
    {
      "bufferView": 2,
      "byteOffset": 103008,
      "componentType": 5126,
      "count": 8520,
      "max": [
        1.0,
        1.0,
        1.0
      ],
      "min": [
        -1.0,
        -1.0,
        -1.0
      ],
      "type": "VEC3"
    },
    {
      "bufferView": 1,
      "byteOffset": 768,
      "componentType": 5126,
      "count": 8520,
      "max": [
        1.99609375,
        0.998504638671875
      ],
      "min": [
        0.001068115234375,
        0.00146484375
      ],
      "type": "VEC2"
    },
    {
      "bufferView": 1,
      "byteOffset": 68928,
      "componentType": 5126,
      "count": 8520,
      "max": [
        5.97265625,
        0.99700927734375
      ],
      "min": [
        -0.261962890625,
        0.0009765625
      ],
      "type": "VEC2"
    },
    {
      "bufferView": 1,
      "byteOffset": 137088,
      "componentType": 5126,
      "count": 8520,
      "max": [
        0.98779296875,
        0.9919357299804688
      ],
      "min": [
        0.00806427001953125,
        0.01171875
      ],
      "type": "VEC2"
    },
    {
      "bufferView": 0,
      "byteOffset": 312,
      "componentType": 5125,
      "count": 28596,
      "type": "SCALAR"
    },
    {
      "bufferView": 2,
      "byteOffset": 205248,
      "componentType": 5126,
      "count": 698,
      "max": [
        0.6514999270439148,
        4.4589996337890625,
        7.979299545288086
      ],
      "min": [
        -0.6514999270439148,
        0.42489996552467346,
        5.348299503326416
      ],
      "type": "VEC3"
    },
    {
      "bufferView": 2,
      "byteOffset": 213624,
      "componentType": 5126,
      "count": 698,
      "max": [
        0.9997212290763855,
        1.0,
        0.9997212290763855
      ],
      "min": [
        -0.9997212290763855,
        -1.0,
        -0.9997212290763855
      ],
      "type": "VEC3"
    },
    {
      "bufferView": 1,
      "byteOffset": 205248,
      "componentType": 5126,
      "count": 698,
      "max": [
        0.9619140625,
        0.9904937744140625
      ],
      "min": [
        0.000640869140625,
        0.00341796875
      ],
      "type": "VEC2"
    },
    {
      "bufferView": 1,
      "byteOffset": 210832,
      "componentType": 5126,
      "count": 698,
      "max": [
        0.99853515625,
        0.798095703125
      ],
      "min": [
        0.0011749267578125,
        0.0009765625
      ],
      "type": "VEC2"
    },
    {
      "bufferView": 1,
      "byteOffset": 216416,
      "componentType": 5126,
      "count": 698,
      "max": [
        0.9912109375,
        0.9919357299804688
      ],
      "min": [
        0.00806427001953125,
        0.0341796875
      ],
      "type": "VEC2"
    },
    {
      "bufferView": 0,
      "byteOffset": 114696,
      "componentType": 5125,
      "count": 2304,
      "type": "SCALAR"
    }
  ],
  "asset": {
    "extras": {
      "author": "Stein Games (https://sketchfab.com/steingames)",
      "license": "CC-BY-4.0 (http://creativecommons.org/licenses/by/4.0/)",
      "source": "https://sketchfab.com/3d-models/desert-eagle-pistol-dc0c2fab66b1432e8ecf6b0e87632408",
      "title": "Desert Eagle Pistol"
    },
    "generator": "Sketchfab-17.14.0",
    "version": "2.0"
  },
  "bufferViews": [
    {
      "buffer": 0,
      "byteLength": 123912,
      "name": "floatBufferViews",
      "target": 34963
    },
    {
      "buffer": 0,
      "byteLength": 222000,
      "byteOffset": 123912,
      "byteStride": 8,
      "name": "floatBufferViews",
      "target": 34962
    },
    {
      "buffer": 0,
      "byteLength": 222000,
      "byteOffset": 345912,
      "byteStride": 12,
      "name": "floatBufferViews",
      "target": 34962
    }
  ],
  "buffers": [
    {
      "byteLength": 567912,
      "uri": "scene.bin"
    }
  ],
  "images": [
    {
      "uri": "textures/sm_0_baseColor.png"
    },
    {
      "uri": "textures/sm_1_metallicRoughness.png"
    }
  ],
  "materials": [
    {
      "doubleSided": true,
      "name": "sm_0",
      "pbrMetallicRoughness": {
        "baseColorTexture": {
          "index": 0
        },
        "metallicFactor": 0.0,
        "roughnessFactor": 0.6
      }
    },
    {
      "doubleSided": true,
      "name": "sm_1",
      "pbrMetallicRoughness": {
        "baseColorTexture": {
          "index": 0
        },
        "metallicRoughnessTexture": {
          "index": 1
        },
        "roughnessFactor": 0.30066050863572535
      }
    },
    {
      "doubleSided": true,
      "name": "sm_2",
      "pbrMetallicRoughness": {
        "baseColorFactor": [
          0.8,
          0.8,
          0.8,
          1.0
        ],
        "metallicFactor": 0.0,
        "roughnessFactor": 0.6
      }
    }
  ],
  "meshes": [
    {
      "name": "SM_DesertEagle_sm_0_0",
      "primitives": [
        {
          "attributes": {
            "NORMAL": 1,
            "POSITION": 0,
            "TEXCOORD_0": 2,
            "TEXCOORD_1": 3,
            "TEXCOORD_2": 4
          },
          "indices": 5,
          "material": 0,
          "mode": 4
        }
      ]
    },
    {
      "name": "SM_DesertEagle_sm_1_0",
      "primitives": [
        {
          "attributes": {
            "NORMAL": 7,
            "POSITION": 6,
            "TEXCOORD_0": 8,
            "TEXCOORD_1": 9,
            "TEXCOORD_2": 10
          },
          "indices": 11,
          "material": 1,
          "mode": 4
        }
      ]
    },
    {
      "name": "SM_DesertEagle_sm_2_0",
      "primitives": [
        {
          "attributes": {
            "NORMAL": 13,
            "POSITION": 12,
            "TEXCOORD_0": 14,
            "TEXCOORD_1": 15,
            "TEXCOORD_2": 16
          },
          "indices": 17,
          "material": 2,
          "mode": 4
        }
      ]
    }
  ],
  "nodes": [
    {
      "children": [
        1
      ],
      "matrix": [
        -0.0047225248999893665,
        -6.122986770486563e-17,
        0.999988853931427,
        0.0,
        -0.999988853931427,
        1.6186087347143968e-16,
        -0.0047225248999893665,
        0.0,
        -1.6156990679731229e-16,
        -1.0,
        -6.199357378593379e-17,
        0.0,
        0.0,
        0.0,
        0.0,
        1.0
      ],
      "name": "Sketchfab_model"
    },
    {
      "children": [
        2
      ],
      "matrix": [
        0.009999999776482582,
        0.0,
        0.0,
        0.0,
        0.0,
        -0.009999999776482582,
        0.0,
        0.0,
        0.0,
        0.0,
        -0.009999999776482582,
        0.0,
        0.0,
        0.0,
        0.0,
        1.0
      ],
      "name": "8ea91328f8ad4a14a6a8009891b4b68b.fbx"
    },
    {
      "children": [
        3
      ],
      "name": "RootNode"
    },
    {
      "children": [
        4,
        5,
        6
      ],
      "name": "SM_DesertEagle"
    },
    {
      "mesh": 0,
      "name": "SM_DesertEagle_sm_0_0"
    },
    {
      "mesh": 1,
      "name": "SM_DesertEagle_sm_1_0"
    },
    {
      "mesh": 2,
      "name": "SM_DesertEagle_sm_2_0"
    }
  ],
  "samplers": [
    {
      "magFilter": 9729,
      "minFilter": 9987,
      "wrapS": 10497,
      "wrapT": 10497
    }
  ],
  "scene": 0,
  "scenes": [
    {
      "name": "Sketchfab_Scene",
      "nodes": [
        0
      ]
    }
  ],
  "textures": [
    {
      "sampler": 0,
      "source": 0
    },
    {
      "sampler": 0,
      "source": 1
    }
  ]
}
